Coordinates
version=1
nRows=14
nColumns=42
inDegrees=yes

Units are S.I. units (second, meters, Newtons, ...)
If the header above contains a line with 'inDegrees', this indicates whether rotational values are in degrees (yes) or radians (no).

endheader
time	pelvis_tilt	pelvis_list	pelvis_rotation	pelvis_tx	pelvis_ty	pelvis_tz	hip_flexion_r	hip_adduction_r	hip_rotation_r	knee_angle_r	knee_adduction_r	knee_angle_r_beta	ankle_angle_r	subtalar_angle_r	mtp_angle_r	hip_flexion_l	hip_adduction_l	hip_rotation_l	knee_angle_l	knee_adduction_l	knee_angle_l_beta	ankle_angle_l	subtalar_angle_l	mtp_angle_l	lumbar_extension	lumbar_bending	lumbar_rotation	arm_flex_r	arm_add_r	arm_rot_r	elbow_flex_r	pro_sup_r	wrist_flex_r	wrist_dev_r	arm_flex_l	arm_add_l	arm_rot_l	elbow_flex_l	pro_sup_l	wrist_flex_l	wrist_dev_l
      0.60000000	     14.89020902	      0.66827792	      7.03965418	     -0.47360310	      0.95700418	     -0.14166711	      9.46281017	      0.70612519	    -11.42495456	     28.77618043	      0.64597925	      0.50223909	      1.77276750	     -5.11979239	     -8.16993866	    -25.19395519	     -4.24825299	     -3.35830929	     42.12630907	     -0.20499578	      0.73524279	     -6.44017930	     13.55489645	     -8.16993866	    -30.34439446	      6.92526726	      3.64257361	     -9.82350350	    -20.17715199	    -13.65585677	     64.30191030	     90.00000001	      0.00000000	      0.00000000	      3.77967702	    -21.49848456	      7.13687943	     72.85007656	     90.00000001	      0.00000000	      0.00000000
      0.61000000	     14.65325481	      0.33138162	      6.88578953	     -0.45918445	      0.95834973	     -0.14027691	      9.00141320	      1.33771634	    -12.03979717	     29.08231712	      0.11990450	      0.50758219	      2.97681589	     -3.92678485	     -8.13480602	    -23.12532384	     -4.53686620	     -2.28951303	     46.02874530	      0.07298713	      0.80335316	     -7.51440795	     10.56985286	     -8.13480602	    -30.14975070	      7.20243006	      4.12835924	     -9.45940348	    -20.32273134	    -13.41401597	     64.16735908	     90.00000001	      0.00000000	      0.00000000	      3.07534184	    -21.20433385	      6.69540943	     72.44804430	     90.00000001	      0.00000000	      0.00000000
      0.62000000	     14.60431974	      0.11777278	      6.81984341	     -0.44491945	      0.96013410	     -0.13909407	      8.14394192	      1.77824769	    -12.79431124	     29.09676463	     -0.27990282	      0.50783434	      4.48472072	     -2.30453378	     -8.08453923	    -21.21689502	     -4.68498422	     -1.44897356	     49.63859597	      0.06485788	      0.86635694	     -8.15205162	      8.52591233	     -8.08453923	    -30.17036022	      7.40404852	      4.49324882	     -9.12819852	    -20.42679327	    -13.24929558	     64.23682007	     90.00000001	      0.00000000	      0.00000000	      2.44835297	    -21.01703901	      6.47642699	     72.00466379	     90.00000001	      0.00000000	      0.00000000
      0.63000000	     14.52217592	     -0.22136305	      6.68412480	     -0.43094309	      0.96197632	     -0.13766132	      7.21057030	      2.40907290	    -13.19783856	     28.77279461	     -0.55419222	      0.50218000	      5.47697583	     -1.38344116	     -8.06187138	    -19.19773467	     -4.94233413	     -1.14134389	     53.05926928	     -0.22656867	      0.92605895	     -8.08155240	      7.27640351	     -8.06187138	    -30.18057445	      7.67046363	      4.97539285	     -8.77440644	    -20.57283385	    -13.03691702	     64.37866700	     90.00000001	      0.00000000	      0.00000000	      1.88280248	    -20.81213219	      6.30305034	     71.46782877	     90.00000001	      0.00000000	      0.00000000
      0.64000000	     14.46631563	     -0.45358326	      6.53994628	     -0.41711617	      0.96402504	     -0.13623293	      6.16753101	      2.89491249	    -13.54627672	     28.31843955	     -0.75356464	      0.49425001	      6.41067861	     -0.38633402	     -8.04124380	    -17.21484206	     -5.08477918	     -0.94474676	     56.07950565	     -0.55031874	      0.97877202	     -7.61338503	      6.13700951	     -8.04124380	    -30.23704297	      7.80446690	      5.40620891	     -8.42827472	    -20.71262386	    -12.79382362	     64.55356078	     90.00000001	      0.00000000	      0.00000000	      1.37539935	    -20.65226183	      6.17394507	     70.86002371	     90.00000001	      0.00000000	      0.00000000
      0.65000000	     14.45617521	     -0.58536245	      6.39763747	     -0.40350635	      0.96630056	     -0.13485426	      4.99793190	      3.24339615	    -13.76539911	     27.73181241	     -0.83027339	      0.48401143	      7.21966806	      0.59753032	     -8.01620167	    -15.29532243	     -5.10022763	     -0.86146501	     58.65545041	     -0.96041452	      1.02373073	     -6.83417015	      5.18086789	     -8.01620167	    -30.36213376	      7.82835584	      5.77220738	     -8.05111331	    -20.83884278	    -12.53315056	     64.78655783	     90.00000001	      0.00000000	      0.00000000	      0.92805841	    -20.52276856	      6.09428631	     70.18804253	     90.00000001	      0.00000000	      0.00000000
      0.66000000	     14.58400366	     -0.63151742	      6.19219953	     -0.38999913	      0.96895625	     -0.13345686	      3.57100181	      3.50103312	    -13.56799655	     26.94961866	     -0.68117152	      0.47035958	      7.86724293	      1.11627335	     -8.00436700	    -13.58269929	     -4.99899015	     -1.06648171	     60.69145149	     -1.53055253	      1.05926566	     -5.83678688	      4.47179921	     -8.00436700	    -30.65445398	      7.74607942	      6.14619773	     -7.67165280	    -20.97620739	    -12.27392613	     65.07582689	     90.00000001	      0.00000000	      0.00000000	      0.53497793	    -20.40969975	      6.07964736	     69.44487420	     90.00000001	      0.00000000	      0.00000000
      0.67000000	     14.66705568	     -0.60526379	      5.96676119	     -0.37665449	      0.97161026	     -0.13200903	      2.15262055	      3.67195199	    -13.26897793	     26.07289124	     -0.50325369	      0.45505780	      8.34021338	      1.53555311	     -7.99534074	    -11.85016497	     -4.81194489	     -1.32375897	     62.26279188	     -2.06251776	      1.08669072	     -4.72134084	      3.89105982	     -7.99534074	    -30.91296251	      7.55507767	      6.46199430	     -7.27969638	    -21.08362893	    -11.99870382	     65.42074281	     90.00000001	      0.00000000	      0.00000000	      0.16978383	    -20.34171082	      6.07809632	     68.65508660	     90.00000001	      0.00000000	      0.00000000
      0.68000000	     14.73251761	     -0.56748289	      5.69627047	     -0.36350344	      0.97423180	     -0.13045033	      0.76100555	      3.86544726	    -12.86799133	     25.14915375	     -0.40463138	      0.43893554	      8.71178559	      1.88916737	     -7.98722422	    -10.11461970	     -4.61087410	     -1.63020244	     63.41273804	     -2.51788813	      1.10676107	     -3.54693026	      3.41853875	     -7.98722422	    -31.16348392	      7.31185692	      6.78744888	     -6.88122221	    -21.19871549	    -11.68656428	     65.80708896	     90.00000001	      0.00000000	      0.00000000	     -0.15601104	    -20.28103601	      6.07803212	     67.83002212	     90.00000001	      0.00000000	      0.00000000
      0.69000000	     14.90862189	     -0.82412112	      5.34001627	     -0.35037190	      0.97693204	     -0.12852127	     -0.87765686	      4.46451755	    -11.95159757	     23.82781927	     -0.18767322	      0.41587390	      8.62011558	      1.66441089	     -7.96135702	     -8.51996520	     -4.83626166	     -2.34301137	     64.18680026	     -3.03700635	      1.12027100	     -2.10580615	      3.56956901	     -7.96135702	    -31.52731015	      7.30521220	      7.34130279	     -6.52747307	    -21.43499496	    -11.22281300	     66.27297126	     90.00000001	      0.00000000	      0.00000000	     -0.46224516	    -20.13904983	      6.05425581	     66.97510586	     90.00000001	      0.00000000	      0.00000000
      0.70000000	     14.93478005	     -0.76137451	      4.93145250	     -0.33734184	      0.97939744	     -0.12678703	     -2.29103527	      4.62780135	    -11.39335944	     22.71139825	     -0.11727279	      0.39638868	      8.85381859	      1.82980430	     -7.94645793	     -6.87685030	     -4.61690512	     -2.88114444	     64.40430628	     -3.39863520	      1.12406720	     -0.85642540	      3.38416683	     -7.94645793	    -31.72870929	      6.95489146	      7.69267637	     -6.16641212	    -21.58933187	    -10.84466023	     66.74991132	     90.00000001	      0.00000000	      0.00000000	     -0.77713876	    -20.10835183	      6.05614144	     66.02864782	     90.00000001	      0.00000000	      0.00000000
      0.71000000	     14.90768135	     -0.67319047	      4.57120417	     -0.32455017	      0.98165043	     -0.12519197	     -3.64122079	      4.73750843	    -10.97528460	     21.57259391	     -0.08202023	      0.37651279	      9.02941899	      2.15033080	     -7.93570971	     -5.17112182	     -4.33145960	     -3.33966464	     64.31411345	     -3.74683650	      1.12249304	      0.35568134	      3.24424866	     -7.93570971	    -31.89406176	      6.59953225	      7.96140489	     -5.78132619	    -21.72930436	    -10.47205300	     67.25926211	     90.00000001	      0.00000000	      0.00000000	     -1.07146099	    -20.05834897	      6.07136566	     65.10274076	     90.00000001	      0.00000000	      0.00000000
      0.72000000	     14.98265717	     -0.65563278	      4.14893812	     -0.31175835	      0.98390561	     -0.12345355	     -5.18075913	      4.99052896	    -10.44962143	     20.20601425	     -0.17393618	      0.35266148	      9.09336861	      2.57697075	     -7.92156559	     -3.67321961	     -4.15392912	     -3.91719750	     63.78634647	     -4.06566469	      1.11328176	      1.58346596	      3.37044639	     -7.92156559	    -32.16133027	      6.29081981	      8.30676060	     -5.42478203	    -21.96629734	    -10.01205653	     67.84778725	     90.00000001	      0.00000000	      0.00000000	     -1.34987122	    -19.99417601	      6.04997446	     64.16943543	     90.00000001	      0.00000000	      0.00000000
      0.73000000	     14.73225284	     -0.51028124	      3.73209908	     -0.29919442	      0.98539369	     -0.12163435	     -6.15785247	      5.04878125	    -10.47205276	     19.28217715	     -0.41512089	      0.33653748	      9.27189669	      2.84135322	     -7.91587983	     -1.80884218	     -3.81160709	     -4.13341742	     63.06239024	     -4.06725519	      1.10064634	      2.37529059	      3.23012514	     -7.91587983	    -32.08239839	      5.79420967	      8.48110995	     -5.04422474	    -21.97420137	     -9.71952609	     68.41546576	     90.00000001	      0.00000000	      0.00000000	     -1.75481468	    -20.02539414	      6.07476642	     63.43782848	     90.00000001	      0.00000000	      0.00000000
